<svg version="1.1" xmlns="http://www.w3.org/2000/svg" xmlns:xlink="http://www.w3.org/1999/xlink"
    preserveAspectRatio="xMidYMid meet" viewBox="544 278 125 111">
    <g data-item-type="text" data-item="Business" id="logo__item--business" class="logo__item">
        <g class="logo__item__inner" transform="translate(605 386.94706277286303) scale(1 1) rotate(0 0 0)">
            <text data-part-id="logo__item--business" dy="0" dominant-baseline="auto" alignment-baseline="auto"
                font-family="Montserrat" font-size="32px" fill="#FFAD48" letter-spacing="0" font-weight="bold"
                font-style="normal" data-font-family="Montserrat" data-font-weight="bold" data-font-style="normal"
                data-ttf-url="/builder_assets/fontsttf/font-montserrat-bold-normal.ttf"></text>
        </g>
    </g>
    <g data-item-type="image" data-item="Image" data-logo-item="" id="logo__item--logo_0" class="logo__item">
        <g class="logo__item__inner"
            transform="translate(537.5882352941177 260.5) scale(0.47058823529411764 0.47058823529411764) rotate(0 0 0)">

            <g>
                <path fill="#FFAD48"
                    d="M162.6,44.3c-31.4,0-59.7,12.9-80.1,33.6l0.7,3.2L112.7,199h116.6l6-23H215v-5h21.8l4.8-20H188v-5h55.2   l6.1-24H160v-9h95.6h6.3l-1.6,5.8l-22.5,86.3l-1,3.8h-3.8H113.4l-1.3,13h20.8c-2.3,3-3.7,5.7-3.7,9.3c0,0.2,0,0.7,0,0.7h-22.4h-5.3   l0.5-4.9l2.1-23.9L74.7,86h-0.2c-5.6,8-10.3,17-14.1,25H70v3H58c-5,13-7.8,27.4-7.8,41.9c0,62.1,50.3,112.8,112.4,112.8   c62.1,0,112.4-50.1,112.4-112.2C275,94.4,224.7,44.3,162.6,44.3z M211.1,232.2c0,5.7-4.6,10.3-10.3,10.3c-5.7,0-10.3-4.6-10.3-10.3   c0-5.7,4.6-10.3,10.3-10.3C206.5,221.9,211.1,226.5,211.1,232.2z M132,232.2c0-5.7,4.6-10.3,10.3-10.3c5.7,0,10.3,4.6,10.3,10.3   c0,5.7-4.6,10.3-10.3,10.3C136.6,242.5,132,237.9,132,232.2z M155.4,232c0,0,0-0.5,0-0.7c0-3.5-1.4-6.3-3.7-9.3h39.7   c-2.3,3-3.7,5.7-3.7,9.3c0,0.2,0,0.7,0,0.7H155.4z M234,232h-20.1c0,0,0-0.5,0-0.7c0-3.5-1.4-6.3-3.7-9.3H234V232z"
                    data-part-id="logo__item--logo_0__0"></path>
                <path fill="#2C6DE9"
                    d="M104,203.4l-2.1,23.5l-0.5,5.1h5.3h22.4c0,0,0-0.5,0-0.7c0-3.5,1.4-6.3,3.7-9.3h-20.8l1.3-13h119.7h3.8l1-4   l22.5-86l1.6-6h-6.3H160v9h89.3l-6.1,24H188v5h53.7l-4.8,20H215v5h20.3l-6,23H112.7L83.2,81.1l-0.7-2.6L82.3,78h-3.8H32v8h42.6h0.2   L104,203.4z"
                    data-part-id="logo__item--logo_0__1"></path>
                <path fill="#2C6DE9" d="M213.9,231.3c0,0.2,0,0.7,0,0.7H234v-10h-23.8C212.5,225,213.9,227.7,213.9,231.3z"
                    data-part-id="logo__item--logo_0__2"></path>
                <path fill="#2C6DE9"
                    d="M187.7,231.3c0-3.5,1.4-6.3,3.7-9.3h-39.7c2.3,3,3.7,5.7,3.7,9.3c0,0.2,0,0.7,0,0.7h32.3   C187.7,232,187.7,231.5,187.7,231.3z"
                    data-part-id="logo__item--logo_0__3"></path>
                <polygon fill="#3E7692" points="70,111 60.4,111 20,111 20,114 58,114 70,114"
                    data-part-id="logo__item--logo_0__4"></polygon>
                <path fill="#2C6DE9"
                    d="M190.5,232.2c0,5.7,4.6,10.3,10.3,10.3c5.7,0,10.3-4.6,10.3-10.3c0-5.7-4.6-10.3-10.3-10.3   C195.1,221.9,190.5,226.5,190.5,232.2z M209.1,227.7c1.1,1.8,1.4,3.7,0.5,4.3c-0.9,0.5-2.5-0.5-3.6-2.3c-1.1-1.8-1.4-3.7-0.5-4.3   C206.3,224.9,207.9,225.9,209.1,227.7z"
                    data-part-id="logo__item--logo_0__5"></path>
                <path fill="#FFFFFE"
                    d="M206,229.7c1.1,1.8,2.7,2.9,3.6,2.3c0.8-0.5,0.6-2.4-0.5-4.3c-1.1-1.8-2.7-2.9-3.6-2.4   C204.6,225.9,204.9,227.8,206,229.7z"
                    data-part-id="logo__item--logo_0__6"></path>
                <path fill="#2C6DE9"
                    d="M142.3,242.5c5.7,0,10.3-4.6,10.3-10.3c0-5.7-4.6-10.3-10.3-10.3c-5.7,0-10.3,4.6-10.3,10.3   C132,237.9,136.6,242.5,142.3,242.5z M150.1,227.7c1.1,1.8,1.4,3.7,0.5,4.3c-0.9,0.5-2.5-0.5-3.6-2.3c-1.1-1.8-1.4-3.7-0.5-4.3   C147.4,224.9,149,225.9,150.1,227.7z"
                    data-part-id="logo__item--logo_0__7"></path>
                <path fill="#FFFFFE"
                    d="M146.6,225.4c-0.8,0.5-0.6,2.4,0.5,4.3c1.1,1.8,2.7,2.9,3.6,2.3c0.9-0.5,0.6-2.4-0.5-4.3   C149,225.9,147.4,224.9,146.6,225.4z"
                    data-part-id="logo__item--logo_0__8"></path>
            </g>

        </g>
    </g>
</svg>
